HIERARCHY
ROOT Hips
{
	OFFSET -1.602300 6.242603 43.997101
	CHANNELS 6 Xposition Yposition Zposition Zrotation Xrotation Yrotation
	JOINT Chest
	{
		OFFSET -0.204900 1.598101 7.917301
		CHANNELS 6 Xposition Yposition Zposition Zrotation Xrotation Yrotation
		JOINT Chest2
		{
			OFFSET 0.000000 0.000000 3.404099
			CHANNELS 6 Xposition Yposition Zposition Zrotation Xrotation Yrotation
			JOINT Neck
			{
				OFFSET 0.000000 0.000000 7.928600
				CHANNELS 6 Xposition Yposition Zposition Zrotation Xrotation Yrotation
				JOINT Head
				{
					OFFSET 0.000000 0.000000 2.173897
					CHANNELS 6 Xposition Yposition Zposition Zrotation Xrotation Yrotation
					End Site
					{
						OFFSET 0.000000 0.000001 10.404503
					}
				}
			}
			JOINT LeftCollar
			{
				OFFSET 2.833800 -1.396299 4.843300
				CHANNELS 6 Xposition Yposition Zposition Zrotation Xrotation Yrotation
				JOINT LeftShoulder
				{
					OFFSET 4.363600 0.000000 0.000000
					CHANNELS 6 Xposition Yposition Zposition Zrotation Xrotation Yrotation
					JOINT LeftElbow
					{
						OFFSET 0.000000 -0.000001 -10.306900
						CHANNELS 6 Xposition Yposition Zposition Zrotation Xrotation Yrotation
						JOINT LeftWrist
						{
							OFFSET 0.000000 -0.000001 -12.404900
							CHANNELS 6 Xposition Yposition Zposition Zrotation Xrotation Yrotation
							End Site
							{
								OFFSET 0.000000 0.000000 -2.173901
							}
						}
					}
				}
			}
			JOINT RightCollar
			{
				OFFSET -2.354800 -1.897200 5.063099
				CHANNELS 6 Xposition Yposition Zposition Zrotation Xrotation Yrotation
				JOINT RightShoulder
				{
					OFFSET -4.375800 0.000000 0.000000
					CHANNELS 6 Xposition Yposition Zposition Zrotation Xrotation Yrotation
					JOINT RightElbow
					{
						OFFSET 0.000000 -0.000001 -10.005001
						CHANNELS 6 Xposition Yposition Zposition Zrotation Xrotation Yrotation
						JOINT RightWrist
						{
							OFFSET 0.000000 -0.000001 -13.174900
							CHANNELS 6 Xposition Yposition Zposition Zrotation Xrotation Yrotation
							End Site
							{
								OFFSET 0.000000 0.000000 -2.173901
							}
						}
					}
				}
			}
		}
	}
	JOINT LeftHip
	{
		OFFSET 2.240600 0.386800 -2.614101
		CHANNELS 6 Xposition Yposition Zposition Zrotation Xrotation Yrotation
		JOINT LeftKnee
		{
			OFFSET 0.000000 -0.000001 -18.592899
			CHANNELS 6 Xposition Yposition Zposition Zrotation Xrotation Yrotation
			JOINT LeftAnkle
			{
				OFFSET 0.000000 -0.000001 -18.765800
				CHANNELS 6 Xposition Yposition Zposition Zrotation Xrotation Yrotation
				End Site
				{
					OFFSET 0.000000 -8.655000 0.000000
				}
			}
		}
	}
	JOINT RightHip
	{
		OFFSET -2.014900 -0.220900 -2.615898
		CHANNELS 6 Xposition Yposition Zposition Zrotation Xrotation Yrotation
		JOINT RightKnee
		{
			OFFSET 0.000000 -0.000001 -18.633900
			CHANNELS 6 Xposition Yposition Zposition Zrotation Xrotation Yrotation
			JOINT RightAnkle
			{
				OFFSET 0.000000 -0.000001 -18.285101
				CHANNELS 6 Xposition Yposition Zposition Zrotation Xrotation Yrotation
				End Site
				{
					OFFSET 0.000000 -7.524500 0.000000
				}
			}
		}
	}
}
MOTION
Frames: 6
Frame Time: 0.041667
-5.441599 27.343004 7.230110 4.238114 -9.373682 5.853432 -0.204902 1.598099 7.917310 -1.283154 30.039196 -5.357860 -0.000000 -0.000002 3.404101 13.090573 -15.833147 -0.172629 0.000001 -0.000001 7.928596 -50.573289 11.223534 19.345876 0.000001 -0.000004 2.173902 -4.891084 4.950597 -7.200950 2.833800 -1.396303 4.843304 6.488945 9.433057 -3.021338 4.363592 0.000008 -0.000004 -50.160336 -5.083323 -108.476334 0.000001 0.000002 -10.306908 637.072071 -114.516912 634.767182 -0.000000 0.000006 -12.404900 -417.009004 150.886310 -148.063120 -2.354806 -1.897200 5.063102 16.401972 9.426243 -30.825870 -4.375790 0.000003 0.000003 13.566674 1.376596 78.329812 0.000002 0.000002 -10.004995 -289.572181 -176.899960 -186.323408 0.000001 0.000004 -13.174891 -235.173385 -162.958997 166.029195 2.240599 0.386807 -2.614102 133.593787 -38.974941 100.526540 0.000001 -0.000003 -18.592894 -117.574876 42.264510 134.928024 -0.000000 -0.000001 -18.765797 10.688078 37.690193 -12.869408 -2.014900 -0.220896 -2.615898 -114.804757 -17.504467 -89.030846 -0.000001 0.000002 -18.633883 182.387197 27.446760 -181.436325 -0.000006 -0.000004 -18.285084 -9.183898 35.564501 -211.292804
-5.439399 27.335604 7.234207 4.289750 -9.351853 5.842802 -0.204902 1.598100 7.917304 -1.349935 29.979999 -5.350275 -0.000000 0.000005 3.404106 13.188271 -15.839444 -0.157204 0.000001 0.000005 7.928600 -50.614704 11.377440 19.376820 0.000000 -0.000002 2.173902 -4.957407 4.977120 -7.216413 2.833800 -1.396299 4.843305 6.700987 9.243539 -2.692514 4.363588 0.000009 -0.000006 -50.015020 -4.287484 -108.854548 -0.000001 0.000008 -10.306910 637.533245 -114.817283 635.090879 -0.000002 0.000008 -12.404896 -418.622294 148.825656 -140.855248 -2.354804 -1.897200 5.063104 16.059016 9.252871 -30.861127 -4.375791 -0.000002 -0.000001 13.665101 1.901973 78.324566 0.000003 0.000001 -10.004992 -289.331294 -176.950981 -186.419290 -0.000001 0.000002 -13.174891 -236.157943 -163.181730 167.447920 2.240598 0.386803 -2.614105 133.532070 -38.916546 100.470560 0.000000 0.000001 -18.592894 -117.561407 42.244061 134.939171 0.000000 0.000001 -18.765797 10.861480 37.741894 -13.309161 -2.014898 -0.220895 -2.615904 -114.857089 -17.569226 -89.026106 0.000000 0.000003 -18.633884 182.368947 27.440218 -181.449959 -0.000005 -0.000004 -18.285088 -9.172651 35.572814 -211.323977
-5.436799 27.327703 7.238205 4.334784 -9.324367 5.832958 -0.204901 1.598097 7.917312 -1.412707 29.895284 -5.337211 -0.000001 -0.000001 3.404101 13.272896 -15.814842 -0.140007 0.000002 -0.000002 7.928598 -50.677702 11.519637 19.418725 0.000000 0.000000 2.173908 -4.970312 5.017115 -7.290227 2.833801 -1.396303 4.843300 6.877054 9.081549 -2.637359 4.363598 0.000009 -0.000010 -49.712463 -3.739346 -108.973838 -0.000001 0.000009 -10.306906 638.227028 -115.015932 635.617787 -0.000001 0.000008 -12.404903 -420.076687 147.260395 -135.326442 -2.354803 -1.897199 5.063098 15.733389 9.068113 -30.707677 -4.375793 0.000000 0.000004 13.769971 2.279870 78.100426 0.000002 0.000006 -10.004994 -288.675869 -177.014010 -186.355264 0.000002 0.000001 -13.174894 -236.979779 -163.381554 168.354573 2.240599 0.386801 -2.614097 133.475625 -38.873291 100.425098 -0.000001 -0.000001 -18.592894 -117.546039 42.239351 134.950099 0.000000 0.000001 -18.765797 10.981434 37.788326 -13.662641 -2.014896 -0.220899 -2.615898 -114.910761 -17.612309 -89.028586 -0.000000 0.000005 -18.633884 182.361570 27.427970 -181.461693 -0.000007 -0.000007 -18.285088 -9.166344 35.578971 -211.351092
-5.433899 27.319405 7.242111 4.370974 -9.288216 5.826891 -0.204901 1.598099 7.917299 -1.466177 29.785041 -5.330193 -0.000001 0.000003 3.404104 13.330477 -15.770289 -0.124815 0.000001 -0.000000 7.928602 -50.726995 11.661844 19.459994 -0.000001 -0.000003 2.173898 -4.980706 5.044172 -7.293431 2.833799 -1.396303 4.843303 7.032144 8.928880 -2.745341 4.363594 0.000008 -0.000010 -49.356094 -3.313850 -108.966871 0.000003 0.000010 -10.306907 638.967694 -115.022653 636.175895 -0.000001 0.000008 -12.404896 -420.962754 146.139042 -131.935923 -2.354804 -1.897202 5.063102 15.481498 8.900574 -30.377154 -4.375792 0.000002 0.000005 13.844198 2.492268 77.668772 0.000000 0.000002 -10.004995 -287.664099 -177.090659 -186.181313 0.000002 0.000002 -13.174891 -237.677087 -163.546954 168.767704 2.240599 0.386801 -2.614105 133.428497 -38.853145 100.393740 0.000001 -0.000001 -18.592892 -117.518418 42.253210 134.960563 0.000002 0.000000 -18.765797 11.050147 37.830557 -13.924700 -2.014896 -0.220899 -2.615901 -114.965006 -17.624910 -89.038769 -0.000001 0.000003 -18.633886 182.364111 27.409703 -181.468824 -0.000006 -0.000006 -18.285086 -9.169177 35.582209 -211.370613
-5.430600 27.310608 7.245808 4.391800 -9.246019 5.823874 -0.204901 1.598098 7.917309 -1.502808 29.655104 -5.332946 -0.000001 -0.000006 3.404102 13.357959 -15.731362 -0.114665 0.000002 -0.000003 7.928606 -50.777395 11.794938 19.534136 -0.000001 -0.000001 2.173904 -4.973762 5.092453 -7.283155 2.833800 -1.396302 4.843304 7.049812 8.901935 -2.935262 4.363598 0.000006 -0.000004 -48.853895 -3.091439 -108.938300 0.000001 0.000012 -10.306903 639.724042 -115.050520 636.809627 -0.000001 0.000008 -12.404900 -421.029635 145.632925 -130.960367 -2.354805 -1.897204 5.063100 15.343786 8.810673 -30.008904 -4.375789 0.000002 0.000001 13.876827 2.572068 77.205938 0.000003 0.000003 -10.004991 -286.675388 -177.181336 -186.023494 -0.000002 0.000001 -13.174894 -238.364914 -163.714252 169.100758 2.240600 0.386803 -2.614102 133.397351 -38.859105 100.373455 0.000000 -0.000000 -18.592894 -117.474637 42.277850 134.973185 -0.000001 0.000001 -18.765799 11.085622 37.861374 -14.124688 -2.014897 -0.220896 -2.615900 -115.008078 -17.615101 -89.040552 -0.000000 0.000002 -18.633886 182.366666 27.390054 -181.472184 -0.000006 -0.000004 -18.285084 -9.192466 35.588445 -211.382675
-5.427000 27.301306 7.249702 4.393652 -9.203654 5.822305 -0.204902 1.598096 7.917302 -1.518680 29.516051 -5.344939 -0.000000 -0.000001 3.404095 13.361339 -15.702806 -0.109481 0.000002 -0.000005 7.928602 -50.834516 11.911331 19.643397 -0.000002 -0.000004 2.173896 -4.958421 5.156996 -7.257233 2.833800 -1.396302 4.843299 7.028767 9.000598 -3.859666 4.363593 0.000008 -0.000007 -48.287945 -3.624815 -108.435332 -0.000000 0.000009 -10.306904 640.573389 -114.959351 637.625917 -0.000004 0.000008 -12.404898 -420.012975 145.634140 -132.506175 -2.354805 -1.897202 5.063098 15.297006 8.774296 -29.739098 -4.375793 0.000001 -0.000001 13.918873 2.903261 76.833194 0.000002 -0.000000 -10.004992 -285.549746 -177.263176 -185.747677 0.000001 0.000004 -13.174894 -239.069953 -163.964961 169.076743 2.240597 0.386797 -2.614102 133.385904 -38.885701 100.359446 0.000001 -0.000001 -18.592894 -117.427249 42.312185 134.991449 0.000001 0.000001 -18.765799 11.090684 37.882241 -14.288987 -2.014897 -0.220899 -2.615900 -115.035125 -17.594147 -89.036304 0.000001 0.000004 -18.633883 182.365545 27.369762 -181.471624 -0.000006 -0.000004 -18.285086 -9.226458 35.596419 -211.389369
